<svg xmlns="http://www.w3.org/2000/svg" viewBox="0 0 280 200" fill="none" role="img" aria-hidden="true">
  <rect x="40" y="20" width="200" height="160" rx="8" fill="#0B2418" opacity="0.15"/>
  <rect x="60" y="40" width="40" height="120" rx="4" fill="#ffffff" stroke="#0B2418" stroke-width="1.5"/>
  <rect x="120" y="40" width="40" height="120" rx="4" fill="#ffffff" stroke="#0B2418" stroke-width="1.5"/>
  <rect x="180" y="40" width="40" height="120" rx="4" fill="#ffffff" stroke="#0B2418" stroke-width="1.5"/>
  <rect x="68" y="55" width="24" height="18" rx="3" fill="#D1F366" opacity="0.7"/>
  <rect x="68" y="85" width="24" height="18" rx="3" fill="#D1F366" opacity="0.55"/>
  <rect x="68" y="115" width="24" height="18" rx="3" fill="#D1F366" opacity="0.65"/>
  <rect x="128" y="55" width="24" height="18" rx="3" fill="#D1F366" opacity="0.6"/>
  <rect x="128" y="85" width="24" height="18" rx="3" fill="#D1F366" opacity="0.75"/>
  <rect x="128" y="115" width="24" height="18" rx="3" fill="#D1F366" opacity="0.5"/>
  <rect x="188" y="55" width="24" height="18" rx="3" fill="#D1F366" opacity="0.65"/>
  <rect x="188" y="85" width="24" height="18" rx="3" fill="#D1F366" opacity="0.55"/>
  <circle cx="140" cy="175" r="12" fill="#D1F366"/>
  <rect x="130" y="168" width="20" height="14" rx="4" fill="#0B2418" opacity="0.6"/>
</svg>
